<?xml version="1.0" encoding="utf-8"?>
<!-- Generator: Adobe Illustrator 22.1.0, SVG Export Plug-In . SVG Version: 6.00 Build 0)  -->
<svg version="1.1" id="Layer_1" xmlns="http://www.w3.org/2000/svg" xmlns:xlink="http://www.w3.org/1999/xlink" x="0px" y="0px"
	 viewBox="0 0 2552.9 901.1" style="enable-background:new 0 0 2552.9 901.1;" xml:space="preserve">
<style type="text/css">
	.st0{fill:#FFFFFF;}
</style>
<g>
	<path class="st0" d="M1281.1,106.7c-5.7-5.2-14.3-5-19.2,0.5c14.4-2.8,22.4,5.2,19.3,20.2C1287.5,120.5,1287.2,112.3,1281.1,106.7z
		"/>
	<path class="st0" d="M1446.8,154.6c-5.5-5.8-14.2-6-19.9-0.4c14.7-3,22.6,6.9,19.5,19.9C1452.1,168.6,1452.2,160.4,1446.8,154.6z"
		/>
	<path class="st0" d="M1116.3,149.5c-5.7-4.5-13.9-4-17.7,0.9c10.7-2.3,21,3.2,19.4,19.5C1123.6,162.8,1122.6,154.4,1116.3,149.5z"
		/>
	<path class="st0" d="M1562.6,262.6c-5.8-5.6-14.4-5.4-19.8,0.5c11.9-3.7,23.6,4,19.8,19.8C1568.5,276.9,1568.5,268.3,1562.6,262.6z
		"/>
	<path class="st0" d="M948.8,443.4c-5.8-4.9-14.5-4.5-18.5,0.9c13.8-3.1,22,5.3,19,20C955.7,457.7,955.3,448.9,948.8,443.4z"/>
	<path class="st0" d="M907.5,223.9c-5.7,3.5-10,11.1-10.9,19.4C903.1,240,908.8,229.9,907.5,223.9z"/>
	<path class="st0" d="M1278.1,284.5c-25.8,1.3-51.6,2.2-77.3,4.1c-22.4,1.6-44.5,5.6-65.9,13c-21.3,7.3-40.4,18-54.1,36.6
		c-13.5,18.3-17.7,39.7-18.6,61.6c-1.2,28.5-1,57,2.9,85.3c1.2,8.2,3.2,16.4,4.9,24.5c0.6,0.1,1.3,0.3,1.9,0.4
		c37.1-106.3,106.9-181.9,211.3-224.9C1281.3,284.5,1279.7,284.4,1278.1,284.5z"/>
	<path class="st0" d="M1001.9,262.6c-5.8-5.4-14-5.2-19.4,0.5c14.8-2.4,22.4,5,19.7,20C1008,276.2,1007.7,268,1001.9,262.6z"/>
	<path class="st0" d="M1188,362.6c-27.1,25-43.2,55.1-40.9,93c0.4,7,2.4,13.8,3.6,20.7c0.5-0.1,1-0.1,1.5-0.2
		c0.2-1.1,0.6-2.2,0.7-3.3c2.9-27.5,12.4-52.6,27.5-75.6c12.6-19.2,28.1-35.9,44-52.3c1.8-1.9,3.6-3.8,6.3-6.5
		c-2,0.5-2.8,0.6-3.6,0.9C1212.2,343.8,1199.3,352.1,1188,362.6z"/>
	<path class="st0" d="M1275.3,741.4c-102.2,0.2-181.2-46-241-127.3c43.3,75,139.5,150.2,270,136.2c92.9-10,162.3-58.3,211.6-136.6
		C1456.3,694.9,1377.4,741.2,1275.3,741.4z"/>
	<path class="st0" d="M1429.6,729.2c15-3,22.7,7.3,19.7,19.8c5.4-5.2,5.5-13.9,0.2-19.4C1444.2,723.9,1435.4,723.7,1429.6,729.2z"/>
	<path class="st0" d="M857.3,310.5c-0.9,0.1-2,1.3-2.2,2.1c-2,10.2-3.9,20.4-5.8,30.6c3.9-6.9,7.2-14,10.1-21.2
		c1.4-3.4,3.5-5.2,6.9-6.3c9.9-3.3,19.7-6.8,29.5-10.3c-0.1-0.4-0.2-0.8-0.2-1.2C882.8,306.3,870,308.3,857.3,310.5z"/>
	<path class="st0" d="M1278.2,772.6c-5.7-4.7-14.2-4.3-18.1,0.9c13.4-3.3,22.5,7.3,18.8,20.2C1285.1,787,1284.5,777.7,1278.2,772.6z
		"/>
	<path class="st0" d="M975.7,618.5c6.8-1.8,12.3-1.7,17,2.9c4.7,4.6,5,10.3,3.3,16.8c5.9-6.5,5.9-14.4,0.6-20
		C991.1,612.4,983.2,612.2,975.7,618.5z"/>
	<path class="st0" d="M1096.3,729.2c14.1-3,22.9,6.8,19.5,19.9c5.7-5.5,5.7-14.2,0.1-19.8C1110.5,723.9,1101.8,723.8,1096.3,729.2z"
		/>
	<path class="st0" d="M1124.7,784.6c83.3,44.2,199.9,49.7,296.3-0.7C1322.3,820.8,1223.5,821,1124.7,784.6z"/>
	<path class="st0" d="M1062.8,235.7c56.1-55.7,124.3-85,203.5-87.1c78.8-2.1,148.3,23.1,207.1,75.5
		c65.8,58.7,98.5,133.1,101.6,220.8c-2.5-101.8-43.3-184.3-126.2-244.4c-93.9-68.1-220.1-75.4-320-18.3
		c-96.2,55-146.4,138.8-154.5,247.7C980,354.9,1008.7,289.5,1062.8,235.7z"/>
	<path class="st0" d="M846.3,542.6c-0.8,0.7-1.8,2.3-1.6,3.1c3.4,10,6.9,20,10.5,30c-0.1-7.3-0.8-14.4-1.8-21.4
		c-0.6-4.5-0.2-8.1,3.2-11.8c7.1-7.6,13.6-15.8,20.4-23.8c-0.2-0.3-0.5-0.5-0.7-0.8C866.2,526.1,856.2,534.3,846.3,542.6z"/>
	<path class="st0" d="M860,291.7c-122.4-12.7-245.2-19.4-368.1-25C532.9,273.6,843.6,294.7,860,291.7z"/>
	<path class="st0" d="M860.2,507.2c-16-6.7-250.1-45.7-266.1-44.3C616.1,470.4,841.3,507.9,860.2,507.2z"/>
	<path class="st0" d="M2135.2,413.5c-32-4.1-369.2-4-387.1,0.1C1877.1,418.2,2006.2,416.3,2135.2,413.5z"/>
	<path class="st0" d="M544,479.5c8.5-2.3,20.2-12.2,24-20.7C557,463.2,550.5,470.8,544,479.5z"/>
	<path class="st0" d="M808.5,434.3c-8.6,6.2-12.5,14.5-15.3,23.5C801.7,451.8,807.7,442.6,808.5,434.3z"/>
	<path class="st0" d="M798.4,414.9c-129.2-4.1-258.4-2.5-387.6,0C439.7,419.4,774.4,419.5,798.4,414.9z"/>
	<path class="st0" d="M1979.3,457.9c4.8,9.5,12.9,15.2,22.3,19.4C1996,468.8,1989.4,461.3,1979.3,457.9z"/>
	<path class="st0" d="M844.5,229.9c-10.4,5.8-16.5,15.1-21.6,25.3C832.1,248.6,840.3,241,844.5,229.9z"/>
	<path class="st0" d="M821.3,212.5c-192.6-5.4-385.3-4.5-578-2.9C270.1,214,803.2,216.6,821.3,212.5z"/>
	<path class="st0" d="M424.3,285.7c16-5.5,31.3-11,45.3-21.9C458.2,264.6,429.6,278.6,424.3,285.7z"/>
	<path class="st0" d="M1753.4,456c-1.8-9.2-9-19.9-15.1-22.4C1738.5,440.4,1746.3,452.1,1753.4,456z"/>
	<path class="st0" d="M1952.5,460.8c-16.7-0.8-238.8,36.1-267.4,44.5C1706.5,505.7,1936.2,467.3,1952.5,460.8z"/>
	<path class="st0" d="M1724.5,253.4c-6-10.4-12.1-19.7-22.7-26.4C1703.8,235.7,1716.3,250.1,1724.5,253.4z"/>
	<path class="st0" d="M1693.3,549.3c-0.6,7.7-1.6,15.4-2.5,23.1c0.3,0.1,0.6,0.1,1,0.2c3.4-9.5,6.8-18.9,10-28.4c0.3-1-0.9-3-2-3.9
		c-5.9-5.1-12.1-10-18.1-14.9c-3.6-3-7.3-5.9-10.9-8.9c6.5,9.2,13.8,17.6,20.7,26.2C1692.8,544.3,1693.4,547.1,1693.3,549.3z"/>
	<path class="st0" d="M1464.3,124.6c-123.6-73.1-278.8-69-399.8,11.2C939.2,219,895.9,351.7,897.5,441.4
		c2.2-63.2,18.8-122.2,50.6-176.9c31.9-54.9,75.1-99,129.3-132.2c53.9-33.1,112.6-51.3,175.6-54.5c20.2-1,40.7-0.2,60.8,2
		c20,2.2,40.1,5.8,59.6,11.2c19.3,5.3,38.3,12.3,56.5,20.7c18.3,8.4,36.2,18.4,53,29.7c16.8,11.3,32.8,24,47.6,37.9
		c14.8,13.8,28.5,29.1,40.8,45.1c12.3,16,23.5,33.2,33.1,51c9.5,17.6,17.7,36.1,24.2,55.1c6.6,19.1,11.5,38.9,15.1,58.7
		c3.6,19.7,4.6,39.8,6.2,54.6C1652,338.4,1596.2,202.6,1464.3,124.6z"/>
	<path class="st0" d="M1241.5,718.2c0-19.5,0-38.9,0-58.4c-0.3,0-0.7,0-1,0c0,19.5,0,38.9,0,58.4
		C1240.9,718.2,1241.2,718.2,1241.5,718.2z"/>
	<path class="st0" d="M1225.5,639.9c-30.2-3.5-59.8-7.4-88.5-16.4c0.8,0.1,1.6,0.1,2.4,0.2c27,6.6,54.5,8.5,82.1,9.3
		c1.2,0,2.5-1.2,3.8-1.9c-0.2-0.5-0.4-1-0.7-1.5c-1.3-0.1-2.6-0.2-3.9-0.3c-21.9-1.7-43.9-2.4-65.6-5.3c-22.7-3-44.6-9.4-63.6-23.1
		c-0.4-0.3-1-0.2-2.7-0.6c19.4,17.5,42.2,24.7,65.4,30.8C1179.5,638,1220.9,643.2,1225.5,639.9z"/>
	<path class="st0" d="M1215.4,714.3c5,1.2,10,2,15.6,3c0-19,0-37.4-0.1-55.9c0-1-1.9-2.6-3.1-2.7c-4.6-0.6-9.3-0.7-14.2-1.1
		c-0.3,0.8-0.6,1.3-0.6,1.7c0,17.3-0.1,34.6,0.1,52C1213,712.4,1214.4,714.1,1215.4,714.3z"/>
	<path class="st0" d="M1243.3,631.7c-4.2-0.2-7.9-0.4-12-0.6c0,5.3,0,10.2,0,15.2c4.4,0,8.3,0,12,0
		C1243.3,641.2,1243.3,636.5,1243.3,631.7z"/>
	<path class="st0" d="M1462,338.7c0.5,4.1,7.5,8.3,14.9,9.1C1475,338.9,1473.7,338.1,1462,338.7z"/>
	<path class="st0" d="M1464.1,349.8c0.8,2.2,1,4.9,2.3,5.6c4.5,2.5,9.4,4.2,14.4,6.4C1479.9,350.4,1478,349,1464.1,349.8z"/>
	<path class="st0" d="M1284.2,174.6c-149.4-4.9-272.2,108.9-282,253.6c-10.1,149.3,95.2,255.3,197.7,281.6c0-14.7-0.1-29.4,0-44
		c0-5,0.7-10,1-15.4c-0.5-0.1-1.8-0.5-3.1-0.8c-14.8-3.1-29.7-5.7-44.3-9.4c-35.4-9-64.5-28.2-87-56.8c-19.4-24.6-27.5-53.7-31.4-84
		c-4.6-36.1-5.6-72.4-1.3-108.6c5.2-44.1,25.7-78.2,64.9-100.1c34.8-19.5,72.9-28.8,112-33.9c28.5-3.7,57.2-6.3,85.9-8.4
		c28.3-2,56.5-1.7,84.7,3.1c41.1,7,71.3,29.9,93.2,64.3c6,9.4,11.1,19.3,19.8,26.6c0.4,0.4,0.6,1.1,0.9,1.9c-2.3,0.2-4.3,0.4-7,0.7
		c2.9,3.6,5.4,6.6,8.1,9.9c-2.1,0.5-3.4,0.8-5.4,1.3c2.9,3.9,5.4,7.3,8.1,10.8c-2,0.4-3.3,0.6-4.6,0.9c2,13,3.9,25.6,5.9,38.7
		c5.5,0,10.8-0.2,16.1,0c5.9,0.3,10.3,3.6,12.5,8.6c2.1,4.7,4.1,10.1,4.2,15.2c0.2,18.4-6.4,26.3-19.5,27.9c-0.3,3.5-0.6,7.2-1,10.8
		c-2.3,20.8-3.5,41.9-7.2,62.4c-8.1,44.4-32.7,76.4-74.4,94.7c-23.7,10.4-48.7,15.5-74.3,18.2c-13.3,1.4-26.6,1.9-39,2.8
		c11,1.1,14.8,5.3,14.8,17.2c0,7.2-0.4,14.3-0.5,21.5c-0.1,9.4,0,18.9,0,28.4c110.4-21,222.9-127.7,215.6-280.9
		C1541,292.1,1426.4,179.3,1284.2,174.6z"/>
	<path class="st0" d="M1250.5,646.1c0-4.5,0-9,0-13.5c-0.3,0-0.5,0-0.8,0c0,4.5,0,9,0,13.5C1250,646.2,1250.2,646.2,1250.5,646.1z"
		/>
	<path class="st0" d="M2552.8,200l-0.1-0.9c-0.7-9.6-8.8-17.1-18.4-17.1c0,0,0,0-0.1,0l-858.1,2.6c-7.1,0-13.6,4.1-16.6,10.5
		c-1.9,3.9-2.3,8.2-1.3,12.2c-0.7,0-1.3,0-2,0.1c-4.8-8.2-13.9-12.5-24-10.8c-8.6,1.4-17,2.7-25.2,3.9c-1.3-1.6-2.5-3.3-3.8-4.9
		c3.6-8.5,7.3-16.6,10.2-23.1c4.4-9.8,2.6-19.6-5-27c-9.3-9-18.5-18.2-27.2-27.2c-7.5-7.7-17.4-9.5-27.4-5
		c-5.1,2.3-10.5,4.7-15.6,6.9c-2.4,1-4.8,2.1-7.2,3.1c-0.9-0.7-1.7-1.3-2.6-2c-0.8-0.6-1.6-1.2-2.4-1.8c1.1-8.2,2.4-16.4,3.8-24.4
		c1.9-10.9-2.6-20.2-12.2-25.6c-12.9-7.2-23.1-13.1-32.3-18.7c-9.5-5.8-20-4.9-28.8,2.4c-3.8,3.1-7.6,6.2-11.6,9.4
		c-2.4,1.9-4.8,3.8-7.2,5.8c-2-0.9-4.1-1.7-6.1-2.5c-0.2-2.1-0.4-4.2-0.7-6.3c-0.6-5.9-1.2-11.5-1.7-17.1c-0.9-11.7-8-20-19.5-22.8
		c-12.9-3.2-24.4-6.2-35-9.3c-10.9-3.1-20.8,0.3-27.3,9.5c-4.7,6.6-9.5,13.3-14.5,19.8c-1-0.1-2-0.3-3-0.4c-1.1-0.1-2.2-0.3-3.3-0.4
		c-1.4-3.6-2.8-7.2-4.1-10.7c-1.6-4.2-3.3-8.5-4.9-12.8C1314.1,5.6,1306,0,1295.6,0c-0.1,0-0.2,0-0.4,0c-13.7,0.2-26.3,0.2-38.5,0
		c-10.8-0.1-19.1,5.6-23,15.8c-1.6,4.2-3.3,8.5-4.9,12.7c-1.3,3.3-2.6,6.8-4,10.2c-2.2,0.2-4.3,0.5-6.4,0.8
		c-5.7-7.9-10.7-14.6-15.5-20.8c-5.5-7.1-15.7-10.7-24.3-8.6c-6.7,1.7-13.4,3.5-19.9,5.2c-5.8,1.6-11.9,3.2-17.8,4.7
		c-6.3,1.6-17.1,6.5-18.5,22.2c-0.8,8.4-1.6,16.3-2.6,24c-1.9,0.8-3.8,1.6-5.7,2.4c-6.2-4.8-12.7-10-19.7-15.8
		c-8.3-6.9-18.5-7.6-27.8-2.1l-0.8,0.5c-9.9,5.9-20.2,12.1-30.4,17.5c-6.3,3.3-16.3,11.4-13.4,28.2c1.4,8,2.5,15.5,3.5,22.8
		c-1,0.8-2,1.5-3,2.3c-0.6,0.5-1.3,1-1.9,1.5c-2.8-1.2-5.6-2.4-8.3-3.6c-4.9-2.1-10-4.4-14.9-6.6c-13.9-6.3-23.5,1.3-26.9,4.9
		c-4.2,4.3-8.6,8.7-12.8,12.9c-4.9,4.9-10,10.1-15,15.2c-6.1,6.4-8.1,17-4.7,25.3c2.2,5.4,4.6,10.7,6.8,15.9
		c1.2,2.8,2.4,5.6,3.6,8.3c-1.2,1.6-2.5,3.2-3.7,4.8c-7.3-0.9-14.3-1.8-21-3.3c-11.8-2.6-22,1.1-28.2,9.9c-0.3,0-0.5,0-0.8,0
		c0.9-4,0.5-8.3-1.3-12.1c-3.1-6.4-9.5-10.5-16.6-10.5L18.6,182c0,0,0,0-0.1,0c-9.5,0-17.5,7.2-18.4,16.7l-0.1,0.9
		c-0.9,9.6,5.7,18.4,15.2,20l370.2,64.8c-1.5,3.3-2,7.1-1.4,10.9c1.3,7.4,6.9,13.3,14.3,14.9L750,386.7H284.9
		c-9.6,0-17.7,7.4-18.4,17l-0.1,1.2c-0.8,9.2,5.4,17.5,14.3,19.5l229.7,52.2c-2,3.8-2.7,8.2-1.8,12.5c1.3,6.5,6,11.7,12.3,13.8
		l363.5,120.7c-2.3,2.8-4.5,5.6-6.8,8.4c-6.6,8.1-7.4,17.8-2.1,26.8c6.6,11.2,13.2,22.6,19.5,33.8c5.2,9.2,14.2,13.4,24.8,11.7
		c8.8-1.4,17-2.7,24.9-3.8c0.5,0.7,1.1,1.4,1.7,2.2c0.7,0.9,1.4,1.8,2.1,2.8c-1.1,2.4-2.1,4.8-3.2,7.2c-2.2,5.1-4.6,10.5-6.9,15.6
		c-4.5,9.9-2.7,19.9,5.1,27.4c9.4,9.1,18.4,18.2,26.8,26.8c7.6,7.8,17.8,9.7,27.9,5c4.2-1.9,8.4-3.8,12.9-5.7
		c3.1-1.3,6.2-2.7,9.3-4.1c1.7,1.3,3.4,2.7,5.2,4c-1.5,8.9-2.7,17-3.7,24.7c-1,7.7,2,18.5,10.8,23.8c9.6,5.8,19.5,11.5,29.1,17
		c2.9,1.6,5.7,3.3,8.6,4.9c6.6,3.8,14.8,3.2,20.8-1.6c2.5-2,5.1-4,7.6-6.1c5-3.9,10-8,15.1-12.1c2,0.8,4,1.7,6.1,2.5
		c0.2,1.8,0.4,3.5,0.6,5.2c0.7,6.2,1.4,12.1,1.9,18.1c1.4,16.5,13.6,21.3,18.8,22.6c10.9,2.7,22.5,5.8,36.6,9.8
		c10.2,2.8,19.8-0.7,26-9.4c3.9-5.6,8.1-11.2,12-16.4c0.9-1.2,1.7-2.4,2.4-3.6c2,0.4,4.4,0.7,6.9,0.7c0,0.1,0.1,0.2,0.1,0.4
		c1.8,6.8,4.2,13,6.6,19.1c1,2.5,1.9,4.8,2.7,7.2c2.7,7.3,9.6,12.2,17.4,12.2h47c7.6,0,14.4-4.6,17.2-11.7c1.2-3,2.4-6,3.6-9
		c2.4-5.9,4.8-11.9,7.1-18c0.9-0.1,1.8-0.2,2.8-0.3c1.2-0.2,2.4-0.3,3.6-0.5c4.4,5.8,9.1,12.2,14.7,20.1c6.3,8.8,15.9,12.2,26.3,9.2
		c12.5-3.6,24.1-6.6,35.5-9.4c11.4-2.8,18.6-11.3,19.6-23.2c0.7-8.3,1.5-15.8,2.3-23c1.1-0.4,2.2-0.9,3.3-1.3
		c0.9-0.4,1.9-0.8,2.9-1.2c2.2,1.8,4.3,3.5,6.5,5.2c4.2,3.4,8.6,6.8,12.7,10.3c8.4,6.9,18.5,7.8,27.8,2.3c11-6.5,22.1-12.9,32.9-19
		c9.6-5.4,14-14.7,12.2-25.6c-1.4-8.5-2.7-16.5-3.7-24.2c1-0.8,2.1-1.6,3.1-2.4c0.6-0.5,1.3-1,1.9-1.5c3.3,1.5,6.6,2.9,9.9,4.3
		c4.3,1.9,8.7,3.8,13,5.7c13.9,6.3,23.5-1.3,26.9-4.8c8.2-8.4,17-17.2,27.6-27.6c7.4-7.2,9.2-17.1,5-26.5c-3.2-7-6.7-15-10.3-23.3
		c1.2-1.7,2.5-3.3,3.8-5c2.5,0.4,5.1,0.8,7.6,1.1c5.8,0.9,11.9,1.8,18,2.6c7.7,1,18.2-2.4,23.4-10.8c6.5-10.7,13.2-22.3,20.6-35.5
		c4.2-7.5,3.5-17.6-1.7-24.7c-2.4-3.2-4.8-6.3-7.2-9.3l364.5-121c6.3-2.1,11-7.3,12.3-13.8c0.9-4.3,0.2-8.7-1.8-12.5l229.8-52.3
		c9.1-2.1,15.3-10.7,14.3-20l-0.1-1.3c-1-9.4-8.9-16.5-18.4-16.5h-464.8l351.3-76.5c7.4-1.6,13-7.5,14.3-14.9
		c0.7-3.8,0.1-7.5-1.4-10.8l370-64.8C2546.9,217.9,2553.5,209.5,2552.8,200z M2120.3,270.7c10.1,6.3,19.2,12,29.4,18.4
		c-161.2,35.1-321.2,70-481,104.8c-0.2,0.7-0.4,0.9-0.4,1.3c-1.2,11.9,4.9,17.7,16,20.6c8.1,2.1,15.7,6.3,23.5,9.4
		c1.3,0.5,2.9,0.4,4.4,0.4c7.4,0,14.9,0,23.4,0c-5-8.2-9.4-15.7-14-23.3c182.2,0,363.9,0,545.6,0c0,0.4,0.1,0.9,0.1,1.3
		c-87.4,19.9-174.8,39.7-263.4,59.9c7.5,6.7,14.2,12.7,21.5,19.1c-130,43.2-259.4,86.2-389.6,129.4c3.7,4.7,7.1,9.1,10.6,13.4
		c4.3,5.3,8.7,10.6,12.7,16.1c0.8,1.1,1.1,3.5,0.4,4.6c-6.6,11.8-13.3,23.4-20.3,35c-0.8,1.3-3.5,2.3-5.1,2.1
		c-11-1.4-22-3.3-33.1-4.8c-1.4-0.2-3.5,0.7-4.4,1.8c-4.7,5.8-9.3,11.7-13.7,17.8c-0.9,1.3-1.2,3.7-0.6,5.2
		c4.3,10.3,8.8,20.5,13.4,30.6c1,2.3,0.8,3.8-1,5.6c-9.4,9.2-18.8,18.5-27.9,27.9c-2.1,2.1-3.7,1.9-6,0.9
		c-9.9-4.4-19.8-8.6-29.6-13.1c-2.7-1.2-4.4-0.9-6.6,0.9c-5.4,4.4-11.2,8.4-16.5,12.9c-1.3,1.1-2.3,3.5-2.1,5.2
		c1.4,10.7,3,21.4,4.8,32.1c0.5,3.1-0.2,4.8-3,6.4c-11.2,6.3-22.3,12.7-33.3,19.2c-2.6,1.6-4.3,1.2-6.5-0.6
		c-8.2-6.8-16.7-13.3-24.9-20.1c-2.2-1.8-3.9-2.4-6.6-1.1c-6.3,2.9-13,5.2-19.3,8.2c-1.7,0.8-3.6,3.1-3.8,4.9
		c-1.4,10.2-2.5,20.5-3.3,30.8c-0.3,3.8-1.6,5.8-5.5,6.8c-12.1,3-24.1,6.2-36.1,9.6c-3,0.8-4.6,0.2-6.2-2.2
		c-6.4-8.9-12.9-17.8-19.6-26.5c-0.9-1.2-3.2-2.1-4.7-1.9c-6.6,0.5-13.2,1.6-19.8,2.3c-3.6,0.4-5.8,1.6-7.2,5.4
		c-3.9,11-8.4,21.7-12.7,32.5c-15.7,0-31.3,0-47,0c-3-8.2-6.6-16.3-8.8-24.7c-2.5-9.3-7-14.6-17.4-14.1c-5.1,0.3-10.9-3.1-15.1-1.4
		c-4.1,1.7-6.6,7.5-9.7,11.6c-4.2,5.6-8.4,11.2-12.4,16.9c-1.6,2.2-3,3-5.8,2.2c-12.3-3.4-24.7-6.8-37.1-9.9
		c-3.6-0.9-4.5-2.7-4.8-6.2c-0.9-10.3-2.2-20.5-3.3-30.8c-0.3-2.9-1.4-4.6-4.4-5.7c-6.4-2.3-12.7-5-18.9-7.8
		c-2.4-1.1-4.1-0.9-6.2,0.8c-9.4,7.7-18.9,15.2-28.5,22.8c-12.6-7.3-25.1-14.3-37.3-21.7c-1.4-0.8-2.3-3.9-2.1-5.7
		c1.2-9.7,2.8-19.4,4.5-29.1c0.8-4.3,0.4-7.4-3.9-10c-4.9-3-9.4-6.9-13.9-10.6c-2.6-2.2-4.6-2.7-7.9-1.1
		c-9.5,4.5-19.2,8.3-28.7,12.7c-2.8,1.3-4.6,1.3-6.8-1.1c-8.9-9.2-18-18.3-27.2-27.2c-2.2-2.1-2.4-3.8-1.2-6.5
		c4.5-9.8,8.7-19.8,13.1-29.6c1.1-2.3,1.3-4-0.5-6.2c-4.7-5.7-8.9-11.7-13.5-17.3c-0.9-1.1-3-1.8-4.4-1.6c-11,1.5-22.1,3.2-33.1,5
		c-2.7,0.4-4.3,0-5.7-2.5c-6.5-11.5-13-22.8-19.7-34.2c-1.3-2.2-1.1-3.7,0.5-5.7c7.7-9.4,15.2-19,23.5-29.3
		c-129.7-43.1-258.8-86-388.7-129.1c7.2-6.4,13.8-12.3,21.5-19.1c-88.5-20.1-175.9-40-263.4-59.9c0-0.4,0.1-0.8,0.1-1.2
		c181.7,0,363.3,0,545.4,0c-4.4,7.4-8.9,14.9-14,23.4c11.6-1.2,22.2,1.8,32.6-3.2c9-4.3,18.5-7.5,27.8-11c3-1.1,4.7-2.5,4.8-5.9
		c0.1-3.8,0.9-7.6,1.4-11.9C722,358.9,562.3,324.1,401.3,289.1c10-6.3,19.1-11.9,29.3-18.4c-138.5-24.3-275.8-48.3-413.1-72.4
		c0-0.3,0.1-0.6,0.1-0.9c285.6,0.9,571.2,1.7,858.2,2.6c-6.3,7.9-11.9,14.8-18.3,22.7c6.5,0,11.9,0,17.3,0c8.3,0,16.7-0.3,25,0.1
		c4.3,0.2,7-1,8.4-5c1.8-5,4.8-6.8,10.6-5.5c9.7,2.2,19.7,3.2,29.6,4.4c1.7,0.2,4.2-0.7,5.2-1.9c4.6-5.5,9-11.2,13.1-17
		c1-1.4,1.3-4,0.7-5.6c-4.2-10.3-9-20.4-13.2-30.7c-0.6-1.5-0.1-4.3,0.9-5.4c9.1-9.5,18.6-18.6,27.8-28.1c2-2.1,3.6-2,6-0.9
		c10,4.5,20.1,8.8,30.1,13.3c2.4,1.1,4.1,1,6.2-0.8c5.4-4.4,11.2-8.4,16.5-13c1.3-1.1,2.4-3.6,2.2-5.3c-1.3-10.2-2.8-20.4-4.6-30.6
		c-0.7-4-0.3-6.6,3.9-8.8c10.9-5.8,21.4-12.1,32-18.4c2.5-1.5,4.2-1.4,6.5,0.5c8.5,7,17.1,13.9,25.8,20.5c1.3,1,4,1.4,5.6,0.8
		c6.6-2.4,13-5,19.3-8c1.7-0.8,3.5-3,3.8-4.8c1.5-10.5,2.7-21.1,3.6-31.7c0.3-3.2,1.1-5,4.5-5.9c12.6-3.1,25-6.7,37.6-9.9
		c1.5-0.4,4.2,0.7,5.2,1.9c6.7,8.7,13.2,17.6,19.6,26.5c1.7,2.3,3.2,3,6.2,2.4c6.2-1.2,12.5-1.9,18.8-2.4c3.6-0.3,5.7-1.5,6.9-5
		c3.6-9.8,7.6-19.5,11.2-29.3c1-2.7,2.3-3.9,5.3-3.8c13,0.2,26,0.2,39,0c2.8,0,4.1,0.9,5.1,3.5c3.7,10,7.8,19.8,11.4,29.8
		c1.2,3.4,3.2,4.5,6.5,4.8c6.6,0.6,13.2,1.8,19.8,2.3c1.7,0.1,4.1-0.8,5.1-2.1c6.6-8.6,13.1-17.3,19.3-26.1c2-2.8,3.8-3.3,7.1-2.3
		c11.8,3.4,23.7,6.5,35.7,9.4c3.6,0.9,5.1,2.6,5.4,6.3c0.8,10.3,2.1,20.5,3.1,30.8c0.3,3,1.5,4.7,4.4,5.8c6.2,2.3,12.4,4.9,18.4,7.6
		c2.8,1.3,4.7,1.1,7.1-0.9c8-6.7,16.4-13.1,24.5-19.8c2.5-2.1,4.4-2.6,7.4-0.8c10.8,6.5,21.8,12.8,32.9,19c2.8,1.5,3.6,3.2,3,6.4
		c-1.8,10.8-3.5,21.7-4.9,32.6c-0.2,1.5,0.8,3.8,2,4.8c5.5,4.6,11.4,8.7,16.9,13.2c2.2,1.8,3.9,1.7,6.3,0.6
		c9.9-4.4,19.8-8.6,29.7-13.1c2.6-1.2,4.3-1.2,6.4,1c9.1,9.3,18.3,18.5,27.6,27.5c2.1,2,2.1,3.6,1,6c-4.5,10-9,20-13.2,30.1
		c-0.6,1.6-0.4,4.2,0.5,5.6c4.2,6,8.7,11.8,13.4,17.4c1,1.2,3.3,2,4.8,1.8c11-1.5,22.1-3.1,33.1-5c2.9-0.5,4.6,0.3,5.4,2.9
		c2.3,6.9,7.1,8.6,14.1,8.2c12.8-0.6,25.6-0.2,39.6-0.2c-6.2-7.7-11.8-14.8-18.2-22.7c286.8-0.9,572.5-1.7,858.1-2.6
		c0,0.3,0,0.6,0.1,0.9C2396.1,222.4,2258.8,246.4,2120.3,270.7z"/>
	<path class="st0" d="M1724.6,210.9c193,3.5,386,1,579-3C2110.6,206,1917.6,205.2,1724.6,210.9z"/>
	<path class="st0" d="M2123,282.8c-14.4-9.3-28.3-17.6-45.3-21.5C2084,268.8,2112.4,282.3,2123,282.8z"/>
	<path class="st0" d="M1686,290.2c20.3,2.4,343.2-19.7,369.3-25.2C2033.8,263.3,1710.8,283.6,1686,290.2z"/>
	<path class="st0" d="M1551.7,610.3c6.1-1.8,11.6-0.9,16.2,3.7c4.6,4.5,4.8,10.1,3.2,16.5c5.7-6.2,5.8-14.2,0.7-19.7
		C1566.4,605,1558.1,604.6,1551.7,610.3z"/>
	<path class="st0" d="M1483.6,370.9c-1.5-8-2.2-8.2-10.3-7.1c1.9,5.1,4.3,10,5.5,15.2c2.2,9.7,3.7,19.5,5.6,29.4
		c3.1-0.5,5.2-1.8,4.6-5.5C1487.1,392.2,1485.6,381.5,1483.6,370.9z"/>
	<path class="st0" d="M1596.1,434.1c7.3-2.2,12.6-1.1,17,3.3c4.5,4.5,4.5,10,3.1,16.4c5.9-6.6,5.8-14.6,0.2-20.2
		C1611.2,428.3,1603.1,428,1596.1,434.1z"/>
	<path class="st0" d="M1688.2,308.4c-8-1.5-16-2.7-24.1-4c-4.4-0.7-8.7-1.4-13.1-2c10.1,4.7,20.4,8.2,30.6,12.1
		c1.9,0.7,3.9,2.5,4.8,4.4c3.5,7.1,6.5,14.5,9.7,21.7c0.3-0.1,0.7-0.1,1-0.2c-1.9-9.7-3.7-19.5-5.7-29.2
		C1691.1,310,1689.4,308.6,1688.2,308.4z"/>
	<path class="st0" d="M1644.4,226.1c-0.6,7.3,4.9,16.8,10.9,19.2C1653.6,237.7,1651.4,230.9,1644.4,226.1z"/>
	<path class="st0" d="M1309.1,640.8c33.6-0.3,66.8-3.3,99-13.4c45.1-14.1,76.4-42.1,88.6-88.9c5.5-21.2,7.6-42.9,9.3-64.6
		c0.6-7.2,1.1-14.5,1.7-22c-2.8-0.4-5-0.7-7.3-1c-0.6-0.1-1.3,0.1-2.2,0.2c-0.2,1.2-0.4,2.3-0.5,3.5c-2.6,23-4.3,46.1-8,68.9
		c-7.2,44.3-31.9,75-74.3,91.1c-28.2,10.7-57.7,14.3-87.5,15.8c-11.4,0.6-22.9,0.1-34.8,0.1c-0.6,4-1,6.9-1.4,9.8
		c-0.5,0-1,0-1.4,0.1c-0.2-2.9-0.3-5.8-0.5-9c-0.6,0-2,0.1-3.5,0.2c-0.1,1.4-0.3,2.6-0.3,3.7c0,3.6,0,7.2,0,11.1c2.6,0,4.7,0,7.1,0
		c-1.1-5.6,2.1-5.9,6.1-5.6C1302.4,641,1305.7,640.9,1309.1,640.8z M1322.8,634.6c31.5-1.9,62.5-5.9,92.3-17.2
		c43.9-16.7,69.2-48.5,76.9-94.5c2.8-16.9,4.9-33.8,8-50.7c-0.3,4.6-0.7,9.3-1,13.9c-1.4,19.7-2.8,39.5-8.3,58.7
		c-10.9,37.5-35.8,61.8-71.6,75.7c-24.1,9.4-49.3,13.8-75,15c-12.6,0.6-25.2,0.1-39.1,0.1C1311.7,635.2,1317.2,635,1322.8,634.6z"/>
	<path class="st0" d="M1509.1,423.7c-0.4,3-0.1,6-0.1,8.2c-1-1.5-2.2-5.1-3.6-5.1c-9.4-0.5-18.8-0.3-28.4-0.3c0,2.7-0.1,4.7,0,6.7
		c0.2,2.9,1.5,4.5,4.8,4.4c7.8-0.3,15.6-0.5,23.4-0.6c1.9,0,3.8,0.6,5.7,0.9c-0.1,0.5-0.1,1-0.2,1.6c-10,0-20,0-30,0
		c0,0.5,0,0.9,0,1.4c5.4,0,10.9-0.2,16.3,0.1c6.8,0.4,14-1.9,20.4,2.5c0.6,0.4,2,0,2.8-0.4c3.7-2,6.3-9.7,4-13.2
		c-1.3-2.2-4.1-4.9-6.1-4.8c-2,0.1-4,3.2-5.6,5.3c-0.9,1.2-0.7,3.1-1.1,5.3c-1.8-6.1-3-11.5,5.3-12.7c-1.8-2.8-3.1-4.9-5.1-7.9
		C1510.7,418.2,1509.5,420.9,1509.1,423.7z"/>
	<path class="st0" d="M1514.8,444.8c-9.2,0-18.5,0-27.5,0c0.5,1.4,1,2.6,1.3,3.6c7.2,0.6,14,1.1,22,1.8c-2.9-1.3-4.8-2.1-7.5-3.3
		c4.6-0.4,8.2-0.7,11.8-0.9C1514.9,445.5,1514.9,445.1,1514.8,444.8z"/>
	<path class="st0" d="M1525,425.6c-0.3-7.6-4.5-12.4-10.4-11.8C1515.5,419.8,1517.4,422,1525,425.6z"/>
	<path class="st0" d="M1434.3,294.1c-8.5-14.8-21.7-22.9-37.6-27.6c-19.5-5.7-39.5-7.5-59.7-8c-32.9-0.7-65.5,2.1-98.2,5.7
		c-31.5,3.5-62.6,8.6-92.8,18.2c-20.7,6.6-40.4,15.3-57.9,28.6c-29.6,22.4-41.3,53.8-44.1,89.3c-2.7,34.5-2.3,68.9,2.9,103.2
		c3.6,23.4,10,45.8,23,65.9c14.7,22.7,34.8,37.1,62.2,39.2c26,2,52.2,4.4,78.3,4.3c40.6-0.1,81.3-1.6,121.8-3.8
		c17-0.9,34.2-3.4,50.6-8c27.1-7.5,48.3-23.5,59.5-50.5c0.1-0.4,0.7-0.5,1.6-1.2c-0.3,10.1-3.7,18.6-7.7,27.2
		c3.1-2.9,6.1-5.8,10.2-9.8c-1.7,4.9-2.9,8.5-4.6,13.3c15-12.7,25.2-27.1,32.2-43.8c10.1-24.1,12.6-49.8,15.2-75.5
		c0.4-3.9-1.9-4.7-5.4-5.5c-1.6,17.7-3,35.2-9,51.9c3.7-17.2,4.8-34.6,4.3-52.1c-0.1-3.1-0.8-6.3-1.9-9.1
		c-3.9-9.8-4.1-19.4,0.3-29.1c0.9-2.1,1.6-4.4,1.7-6.7c0.5-15.9-1.4-31.5-5.7-46.8c0,0,0,0,0,0c-1.3-0.5-2.5-1-4.9-1.9
		c0,6.9-0.4,12.8,0.1,18.7c0.7,7.9,2.5,15.8,3.2,23.7c3.6,41.5-0.6,82.4-11,122.7c-1.2,4.6-2.6,9.2-3.9,13.7
		c-0.7-1.9-0.3-3.5-0.1-5.1c2.8-19.9,6.2-39.8,8.1-59.8c2.7-28.1,2.6-56.2-0.8-84.3c-3.2-26.5-8.7-52.5-20.2-76.8
		c-0.4-0.8-0.5-1.7-0.7-2.5c2.9,3.6,5,7.5,7.1,11.4c1,1.9,1.9,4.4,3.5,5.3c6.1,3.1,12.5,5.7,20.1,9c-5.7-12.8-11.7-23.6-20.5-32.7
		c0.6,3,1.6,5.8,2.6,8.5c1,2.6,1.9,5.2,2.9,7.8c-7.2-12.6-11.6-27-26.1-35c1.9,4.1,3.5,7.6,5.2,11.2
		C1436.2,296.8,1435.1,295.5,1434.3,294.1z M1291.7,264.8c23.6-1.2,47.3-1.5,70.8,1.8c13.4,1.9,26.6,4.6,38.5,11.2
		c4.7,2.6,8.9,6.2,13.3,9.4c-0.2,0.4-0.4,0.8-0.7,1.1c-0.8-0.3-1.7-0.4-2.4-0.8c-15.7-9.9-33.4-13.6-51.4-16.1
		c-33.6-4.7-67.4-3.8-101.2-2.2c-2.3,0.1-4.6,0-7,0c0-0.3-0.1-0.7-0.1-1C1264.9,267.1,1278.3,265.5,1291.7,264.8z M1410.2,341.8
		c-8.7-19.6-20.4-36.6-40.1-47.6C1388.1,291.5,1413,321.2,1410.2,341.8z M1286.9,595.2c-37.9,1.8-75.9,2.5-113.9,3.2
		c-16.9,0.3-33.5-1.9-49.9-6.3c-31.8-8.5-51-29.8-61.1-60.3c-7.7-23.2-10.5-47.1-10.9-71.3c-0.3-20.3-0.2-40.7,1-60.9
		c2.3-39.8,18.1-72.2,55.4-90.7c11.8-5.9,24.5-10.5,37.1-14.2c25.6-7.5,52.1-10.7,78.7-12.2c21.4-1.2,42.9-2.5,64.4-2.7
		c22.5-0.2,44.9,1.4,66.7,7.7c1.6,0.5,3.1,1,4.7,1.5c-7,3.2-14.3,5.4-20.5,9.3c-24.4,15.5-25.2,46.9-1.8,64
		c22.3,16.3,54.2,12.9,72.5-7.6c1-1.1,2-2.2,4-4.3c1.3,7.1,2.6,13.1,3.5,19.3c4,27,3.8,54.2,2.9,81.3c-0.6,20.9-1.5,41.9-4,62.7
		c-4.2,35.7-25.1,57.9-59,68.6C1334.1,589.7,1310.7,594.1,1286.9,595.2z M1416.5,550.2c-7,15.4-18.9,25.9-33.8,33.3
		c-14.3,7.1-37.8,12.6-49,10.9c2.3-0.6,4.6-1.2,6.9-1.8c19.9-5.1,39.2-11.6,55.3-25.2c13-10.9,21.3-24.5,23.4-41.6
		c0.1-1,0.5-1.9,0.8-3.1C1422.1,530.6,1420.7,540.9,1416.5,550.2z M1447.7,386.7c0.4-0.1,0.9-0.1,1.3-0.2
		c4.8,39.2,7.1,78.3-1.3,117.4C1447.7,464.9,1447.7,425.8,1447.7,386.7z M1444.7,364.3c-5.4-19.6-10.5-39.2-20.5-57.2
		C1438.7,323.5,1444.6,342.8,1444.7,364.3z"/>
	<path class="st0" d="M1444.5,594.8c7.8-4.5,21.7-18.8,22.5-22.5C1459.7,579.6,1450.9,588.3,1444.5,594.8z"/>
	<path class="st0" d="M1282,634.7c0-0.9-0.2-1.9-0.3-2.8c-5.4,0-10.4,0-15.6,0c0,5,0,9.8,0,14.4
		C1279.7,649.8,1282.3,647.9,1282,634.7z"/>
	<path class="st0" d="M1487.9,412.6c-4.4,0.2-6.6,2.7-7.3,6.4c7.2,0,14.3-0.3,21.4,0.1c5,0.3,8.3-1.1,9.9-6.6
		C1503.7,412.5,1495.8,412.2,1487.9,412.6z"/>
	<path class="st0" d="M1264.3,720.4c7.7,0,15.1,0,22.6,0c0-20.7,0-41.1,0-61.7c-7.6,0-14.9,0-22.6,0
		C1264.3,679.6,1264.3,699.9,1264.3,720.4z"/>
	<path class="st0" d="M1293.1,667c0,4.3,0,8.7,0,13c0,13.1,0,26.3,0,40.1c4-0.3,7.3-0.5,10.5-0.8c0-20.6,0-40.6,0-60.6
		C1293.1,657.4,1293.1,657.4,1293.1,667z"/>
</g>
</svg>
