<?xml version="1.0" encoding="utf-8"?>
<!-- Generator: Adobe Illustrator 22.1.0, SVG Export Plug-In . SVG Version: 6.00 Build 0)  -->
<svg version="1.1" id="Layer_1" xmlns="http://www.w3.org/2000/svg" xmlns:xlink="http://www.w3.org/1999/xlink" x="0px" y="0px"
	 viewBox="0 0 533.8 67.7" style="enable-background:new 0 0 533.8 67.7;" xml:space="preserve">
<style type="text/css">
	.st0{fill:#FFFFFF;}
</style>
<g>
	<g>
		<path class="st0" d="M124.2,53h29.6v14.3h-45.6V0h16V53z"/>
		<path class="st0" d="M174.5,67.4h-15.9V0h15.9V67.4z"/>
		<path class="st0" d="M227.8,0c2.1,0,3.9,0.7,5.5,2.1c1.6,1.4,2.4,3.1,2.4,5.2v53c0,2.1-0.8,3.8-2.4,5.1c-1.6,1.3-3.4,2-5.5,2
			h-45.6V0H227.8z M197.9,14.5v12H220v-12H197.9z M220,53.2V41h-22.1v12.2H220z"/>
		<path class="st0" d="M284.3,67.4l-15.4-23.1h-11.4v23.1h-15.9V0h45.8c2.3,0,4.2,0.7,5.7,2.1c1.5,1.4,2.3,3.1,2.3,5V37
			c0,2.1-0.8,3.8-2.3,5.2s-3.4,2.1-5.7,2.1l15.4,23.1H284.3z M257.4,29.9h22.1V14.3h-22.1V29.9z"/>
		<path class="st0" d="M349.3,67.4l-5.2-15.9h-25l-5.4,15.9h-16.3l22.1-67.2h24.2l22.1,67.2H349.3z M331.6,14.3L323.9,37h15.3
			L331.6,14.3z"/>
		<path class="st0" d="M409.2,67.4l-15.4-23.1h-11.4v23.1h-15.9V0h45.8c2.3,0,4.2,0.7,5.7,2.1c1.5,1.4,2.3,3.1,2.3,5V37
			c0,2.1-0.8,3.8-2.3,5.2s-3.4,2.1-5.7,2.1l15.4,23.1H409.2z M382.3,29.9h22.1V14.3h-22.1V29.9z"/>
		<path class="st0" d="M467.6,36.5v30.8h-15.9V36.5L426.4,0h21.7l11.6,16.5L471.2,0h21.7L467.6,36.5z"/>
	</g>
	<g>
		<path class="st0" d="M22.6,10.4c0.6,0,1.2,0.1,1.6,0.3c0.4,0.2,0.6,0.3,0.6,0.5l-7.7,47.3c0,0.2-0.3,0.4-0.8,0.4
			C15.7,59,15.3,59,14.9,59c-0.3,0-0.7,0-1.2-0.1c-0.5-0.1-0.8-0.2-0.8-0.4L5.1,11.1c0-0.2,0.1-0.4,0.4-0.5c0.3-0.2,0.9-0.2,1.7-0.2
			c1.4,0,2.2,0.2,2.3,0.6l5.3,32.4c0,0.2,0.1,0.3,0.2,0.3c0.1,0,0.1-0.1,0.2-0.3L20.4,11c0-0.2,0.3-0.4,0.7-0.5
			C21.5,10.4,22,10.4,22.6,10.4z"/>
		<path class="st0" d="M30.4,59c-1.5,0-2.2-0.2-2.2-0.6V11.1c0-0.2,0.2-0.4,0.5-0.5c0.3-0.2,0.9-0.2,1.7-0.2c0.8,0,1.3,0.1,1.7,0.2
			c0.3,0.2,0.5,0.3,0.5,0.5v47.1C32.6,58.8,31.9,59,30.4,59z"/>
		<path class="st0" d="M47.9,10.7c2,0,3.5,0.4,4.5,1.3s1.6,2.4,1.6,4.4v36.2c0,2.1-0.5,3.6-1.6,4.6c-1,1-2.5,1.4-4.5,1.4h-9.8
			c-0.5,0-0.7-0.2-0.7-0.7V11.3c0-0.4,0.2-0.6,0.6-0.6H47.9z M49.7,16.4c0-0.6-0.2-1.2-0.6-1.6c-0.4-0.4-0.9-0.7-1.7-0.7H42
			c-0.3,0-0.4,0.1-0.4,0.4v40c0,0.4,0.2,0.6,0.5,0.6h5.4c0.7,0,1.3-0.3,1.7-0.8c0.4-0.5,0.6-1.1,0.6-1.9V16.4z"/>
		<path class="st0" d="M71.3,55.4c0.1,0.2,0.2,0.7,0.2,1.4c0,0.7-0.1,1.2-0.2,1.4c-0.1,0.2-0.3,0.3-0.5,0.3l-12.1-0.1
			c-0.4,0-0.6-0.2-0.6-0.5V11.3c0-0.4,0.2-0.6,0.6-0.6h11.9c0.2,0,0.4,0.2,0.6,0.5c0.1,0.3,0.2,0.7,0.2,1.2c0,0.4-0.1,0.8-0.2,1.2
			c-0.1,0.4-0.3,0.6-0.5,0.6h-8c-0.3,0-0.4,0.1-0.4,0.4V32c0,0.3,0.1,0.4,0.3,0.4H70c0.1,0,0.3,0.1,0.4,0.3c0.2,0.2,0.2,0.7,0.2,1.5
			c0,0.8-0.1,1.3-0.2,1.5c-0.2,0.2-0.3,0.3-0.5,0.3h-7.1c-0.3,0-0.5,0.2-0.5,0.6v18.1c0,0.3,0.2,0.5,0.5,0.5h7.9
			C71,55.2,71.1,55.2,71.3,55.4z"/>
		<path class="st0" d="M85.5,10.7c2,0,3.5,0.4,4.5,1.3c1,0.9,1.5,2.4,1.5,4.4v36.3c0,2.1-0.5,3.6-1.5,4.5c-1,0.9-2.5,1.4-4.5,1.4H81
			c-2,0-3.5-0.4-4.5-1.3s-1.6-2.4-1.6-4.4V16.7c0-2.1,0.5-3.6,1.6-4.5c1-0.9,2.5-1.4,4.5-1.4H85.5z M87.2,16.4
			c0-0.6-0.2-1.2-0.5-1.6c-0.3-0.4-0.9-0.6-1.7-0.6h-3.6c-0.7,0-1.3,0.3-1.7,0.8c-0.4,0.5-0.6,1.1-0.6,1.9v36.1
			c0,0.6,0.2,1.2,0.6,1.6c0.4,0.4,0.9,0.6,1.7,0.6H85c0.7,0,1.3-0.3,1.7-0.8c0.4-0.5,0.6-1.1,0.6-1.9V16.4z"/>
	</g>
	<rect y="0.3" class="st0" width="98" height="3.3"/>
	<rect y="64.3" class="st0" width="98" height="3.3"/>
	<g>
		<path class="st0" d="M504.6,67c0,0.5-0.7,0.7-2.1,0.7c-1.4,0-2.1-0.3-2.1-0.8V30.1c0-0.5-0.1-0.9-0.2-1.1c-0.2-0.2-0.5-0.3-1-0.3
			h-6.8c-0.2,0-0.4-0.1-0.8-0.4c-0.3-0.3-0.5-0.8-0.5-1.4c0-0.6,0.1-1.1,0.4-1.4c0.3-0.3,0.6-0.4,0.8-0.4h3.1c1.1,0,1.9-0.1,2.6-0.4
			c0.7-0.3,1.2-0.6,1.5-1.1c0.3-0.5,0.6-1,0.7-1.7c0.1-0.6,0.2-1.4,0.2-2.1c0-0.3,0.2-0.5,0.5-0.6c0.3-0.1,0.9-0.1,1.7-0.1
			c1.4,0,2.1,0.3,2.1,0.8V67z"/>
		<path class="st0" d="M511,63.5c0.6,0,1.2,0,1.6,0.1c0.4,0.1,0.6,0.2,0.6,0.4v3c0,0.2-0.2,0.4-0.6,0.5c-0.4,0.1-0.9,0.2-1.6,0.2
			c-0.6,0-1.2,0-1.6-0.1c-0.4-0.1-0.6-0.3-0.6-0.5V67v-2.9c0-0.2,0.2-0.4,0.6-0.5C509.8,63.5,510.3,63.5,511,63.5z"/>
		<path class="st0" d="M527.8,19.4c2,0,3.5,0.4,4.5,1.3c1,0.9,1.5,2.4,1.5,4.4v36.3c0,2.1-0.5,3.6-1.5,4.5c-1,0.9-2.5,1.4-4.5,1.4
			h-4.5c-2,0-3.5-0.4-4.5-1.3c-1-0.9-1.5-2.4-1.5-4.4V25.3c0-2.1,0.5-3.6,1.5-4.5c1-0.9,2.5-1.4,4.5-1.4H527.8z M523.8,22.9
			c-0.7,0-1.3,0.3-1.7,0.8c-0.4,0.5-0.6,1.1-0.6,1.9v27.9v0.1l0.1-0.1c0.1-0.6,0.4-1.7,0.8-3.3c0.4-1.7,0.8-3.6,1.3-5.8
			c0.5-2.2,1-4.5,1.5-7c0.5-2.4,1-4.7,1.4-6.7c0.4-2,0.8-3.7,1.1-5.1c0.3-1.4,0.4-2.1,0.4-2.2c0.1-0.2,0-0.3-0.2-0.3
			c-0.2,0-0.4,0-0.6,0H523.8z M527.4,63.8c0.7,0,1.3-0.3,1.7-0.8c0.4-0.5,0.6-1.1,0.6-1.9V33.7v-0.1c0-0.1,0,0-0.1,0.1
			c0,0-0.1,0.7-0.4,2.1c-0.3,1.4-0.7,3.1-1.1,5.1c-0.4,2-0.9,4.3-1.4,6.7c-0.5,2.4-1,4.7-1.5,6.9c-0.5,2.2-0.9,4.1-1.2,5.7
			c-0.4,1.6-0.6,2.7-0.7,3.2c-0.1,0.2,0,0.4,0.2,0.4c0.2,0,0.4,0,0.6,0H527.4z"/>
	</g>
</g>
</svg>
