<?xml version="1.0" encoding="utf-8"?>
<!-- Generator: Adobe Illustrator 22.1.0, SVG Export Plug-In . SVG Version: 6.00 Build 0)  -->
<svg version="1.1" id="Layer_1" xmlns="http://www.w3.org/2000/svg" xmlns:xlink="http://www.w3.org/1999/xlink" x="0px" y="0px"
	 viewBox="0 0 2552.9 901.1" style="enable-background:new 0 0 2552.9 901.1;" xml:space="preserve">
<style type="text/css">
	.st0{fill:#FFFFFF;stroke:#FFFFFF;stroke-width:37;stroke-linecap:round;stroke-linejoin:round;stroke-miterlimit:10;}
</style>
<g>
	<path class="st0" d="M2268.2,405.2c-181.7,0-363.4,0-545.6,0c4.6,7.6,9.1,15.1,14,23.3c-8.5,0-15.9,0-23.4,0
		c-1.5,0-3.1,0.1-4.4-0.4c-7.9-3.1-15.4-7.2-23.5-9.4c-11.1-2.9-17.1-8.7-16-20.6c0-0.3,0.2-0.6,0.4-1.3
		c159.8-34.8,319.7-69.6,481-104.8c-10.2-6.4-19.3-12.1-29.4-18.4c138.5-24.3,275.8-48.3,413.1-72.4c0-0.3,0-0.6-0.1-0.9
		c-285.7,0.9-571.3,1.7-858.1,2.6c6.4,7.9,12,15,18.2,22.7c-13.9,0-26.8-0.5-39.6,0.2c-7.1,0.4-11.8-1.3-14.1-8.2
		c-0.9-2.6-2.6-3.4-5.4-2.9c-11,1.8-22,3.5-33.1,5c-1.5,0.2-3.9-0.7-4.8-1.8c-4.7-5.6-9.2-11.4-13.4-17.4c-1-1.4-1.2-4-0.5-5.6
		c4.2-10.1,8.7-20.2,13.2-30.1c1.1-2.4,1.1-4-1-6c-9.3-9-18.5-18.2-27.6-27.5c-2.2-2.2-3.8-2.2-6.4-1c-9.8,4.5-19.8,8.7-29.7,13.1
		c-2.4,1.1-4.1,1.2-6.3-0.6c-5.5-4.6-11.4-8.7-16.9-13.2c-1.2-1-2.2-3.3-2-4.8c1.4-10.9,3-21.7,4.9-32.6c0.5-3.2-0.3-4.8-3-6.4
		c-11-6.2-22-12.4-32.9-19c-3-1.8-4.9-1.3-7.4,0.8c-8.1,6.7-16.4,13.1-24.5,19.8c-2.4,2-4.3,2.2-7.1,0.9c-6-2.7-12.2-5.3-18.4-7.6
		c-2.9-1.1-4.1-2.7-4.4-5.8c-0.9-10.3-2.3-20.5-3.1-30.8c-0.3-3.8-1.8-5.4-5.4-6.3c-11.9-2.9-23.8-6.1-35.7-9.4
		c-3.3-0.9-5.1-0.5-7.1,2.3c-6.2,8.8-12.7,17.6-19.3,26.1c-1,1.3-3.5,2.3-5.1,2.1c-6.6-0.5-13.2-1.7-19.8-2.3
		c-3.4-0.3-5.3-1.5-6.5-4.8c-3.6-10-7.7-19.8-11.4-29.8c-1-2.6-2.2-3.5-5.1-3.5c-13,0.2-26,0.2-39,0c-3.1,0-4.3,1.1-5.3,3.8
		c-3.7,9.8-7.7,19.5-11.2,29.3c-1.3,3.6-3.3,4.8-6.9,5c-6.3,0.5-12.6,1.2-18.8,2.4c-3,0.6-4.5-0.1-6.2-2.4
		c-6.4-8.9-12.9-17.8-19.6-26.5c-1-1.3-3.7-2.3-5.2-1.9c-12.6,3.1-25,6.7-37.6,9.9c-3.5,0.9-4.2,2.6-4.5,5.9
		c-1,10.6-2.1,21.2-3.6,31.7c-0.3,1.8-2.1,4-3.8,4.8c-6.3,3-12.8,5.6-19.3,8c-1.6,0.6-4.3,0.2-5.6-0.8c-8.7-6.7-17.3-13.5-25.8-20.5
		c-2.3-1.9-4-2-6.5-0.5c-10.6,6.3-21.2,12.6-32,18.4c-4.1,2.2-4.6,4.8-3.9,8.8c1.7,10.2,3.3,20.4,4.6,30.6c0.2,1.7-0.8,4.2-2.2,5.3
		c-5.3,4.5-11.1,8.5-16.5,13c-2.1,1.7-3.8,1.9-6.2,0.8c-10-4.5-20.1-8.8-30.1-13.3c-2.4-1.1-4-1.2-6,0.9
		c-9.2,9.4-18.6,18.6-27.8,28.1c-1.1,1.1-1.5,3.9-0.9,5.4c4.2,10.3,8.9,20.4,13.2,30.7c0.6,1.6,0.3,4.2-0.7,5.6
		c-4.1,5.9-8.5,11.6-13.1,17c-1.1,1.3-3.5,2.1-5.2,1.9c-9.9-1.2-19.9-2.3-29.6-4.4c-5.8-1.3-8.7,0.5-10.6,5.5c-1.5,4-4.2,5.2-8.4,5
		c-8.3-0.4-16.7-0.1-25-0.1c-5.4,0-10.8,0-17.3,0c6.3-7.9,11.9-14.8,18.3-22.7c-287-0.9-572.6-1.7-858.2-2.6c0,0.3-0.1,0.6-0.1,0.9
		c137.3,24.1,274.6,48.1,413.1,72.4c-10.3,6.4-19.4,12.1-29.3,18.4c161,35.1,320.7,69.9,480.5,104.7c-0.5,4.3-1.3,8.1-1.4,11.9
		c-0.1,3.5-1.8,4.8-4.8,5.9c-9.3,3.5-18.9,6.7-27.8,11c-10.4,5-21,2-32.6,3.2c5.1-8.5,9.6-16,14-23.4c-182.1,0-363.8,0-545.4,0
		c0,0.4-0.1,0.8-0.1,1.2c87.4,19.9,174.9,39.8,263.4,59.9c-7.7,6.8-14.3,12.7-21.5,19.1c129.9,43.1,259,86,388.7,129.1
		c-8.2,10.3-15.8,19.9-23.5,29.3c-1.6,2-1.8,3.4-0.5,5.7c6.7,11.3,13.3,22.7,19.7,34.2c1.4,2.5,3,3,5.7,2.5c11-1.8,22-3.5,33.1-5
		c1.4-0.2,3.5,0.6,4.4,1.6c4.7,5.7,8.9,11.7,13.5,17.3c1.8,2.2,1.6,3.9,0.5,6.2c-4.5,9.8-8.6,19.8-13.1,29.6c-1.2,2.7-1,4.4,1.2,6.5
		c9.2,8.9,18.3,18,27.2,27.2c2.3,2.3,4,2.4,6.8,1.1c9.5-4.4,19.3-8.2,28.7-12.7c3.3-1.6,5.3-1,7.9,1.1c4.5,3.8,8.9,7.6,13.9,10.6
		c4.3,2.6,4.6,5.7,3.9,10c-1.7,9.7-3.3,19.4-4.5,29.1c-0.2,1.8,0.7,4.8,2.1,5.7c12.2,7.4,24.7,14.4,37.3,21.7
		c9.6-7.6,19.1-15.1,28.5-22.8c2.2-1.8,3.8-1.9,6.2-0.8c6.2,2.8,12.5,5.5,18.9,7.8c3,1.1,4.1,2.8,4.4,5.7c1,10.3,2.4,20.5,3.3,30.8
		c0.3,3.5,1.2,5.3,4.8,6.2c12.4,3.1,24.8,6.4,37.1,9.9c2.8,0.8,4.3,0,5.8-2.2c4-5.7,8.2-11.3,12.4-16.9c3.1-4.1,5.5-10,9.7-11.6
		c4.1-1.7,10,1.6,15.1,1.4c10.4-0.5,14.9,4.8,17.4,14.1c2.3,8.4,5.8,16.5,8.8,24.7c15.7,0,31.3,0,47,0c4.3-10.8,8.8-21.5,12.7-32.5
		c1.4-3.9,3.6-5.1,7.2-5.4c6.6-0.7,13.2-1.7,19.8-2.3c1.6-0.1,3.8,0.7,4.7,1.9c6.7,8.7,13.2,17.6,19.6,26.5c1.7,2.4,3.3,3,6.2,2.2
		c12-3.4,24-6.6,36.1-9.6c3.9-1,5.2-3,5.5-6.8c0.9-10.3,1.9-20.6,3.3-30.8c0.2-1.8,2.1-4.1,3.8-4.9c6.3-3,12.9-5.3,19.3-8.2
		c2.8-1.3,4.5-0.7,6.6,1.1c8.2,6.8,16.7,13.3,24.9,20.1c2.3,1.9,3.9,2.2,6.5,0.6c11-6.6,22.1-13,33.3-19.2c2.8-1.6,3.5-3.3,3-6.4
		c-1.8-10.7-3.4-21.3-4.8-32.1c-0.2-1.7,0.8-4.1,2.1-5.2c5.3-4.5,11.1-8.5,16.5-12.9c2.2-1.8,4-2.1,6.6-0.9
		c9.8,4.5,19.8,8.7,29.6,13.1c2.4,1.1,4,1.3,6-0.9c9.2-9.4,18.5-18.7,27.9-27.9c1.9-1.8,2.1-3.3,1-5.6c-4.6-10.1-9.1-20.3-13.4-30.6
		c-0.6-1.4-0.3-3.9,0.6-5.2c4.3-6.1,8.9-12,13.7-17.8c0.9-1.1,3-2,4.4-1.8c11,1.5,22,3.4,33.1,4.8c1.6,0.2,4.4-0.8,5.1-2.1
		c7-11.5,13.7-23.2,20.3-35c0.6-1.1,0.4-3.5-0.4-4.6c-4.1-5.5-8.5-10.7-12.7-16.1c-3.5-4.3-6.9-8.7-10.6-13.4
		c130.2-43.2,259.6-86.2,389.6-129.4c-7.3-6.5-14-12.4-21.5-19.1c88.7-20.2,176-40,263.4-59.9C2268.2,406,2268.2,405.6,2268.2,405.2
		z"/>
	<path d="M2267.2,403.2c-181.7,0-363.4,0-545.6,0c4.6,7.6,9.1,15.1,14,23.3c-8.5,0-15.9,0-23.4,0c-1.5,0-3.1,0.1-4.4-0.4
		c-7.9-3.1-15.4-7.2-23.5-9.4c-11.1-2.9-17.1-8.7-16-20.6c0-0.3,0.2-0.6,0.4-1.3c159.8-34.8,319.7-69.6,481-104.8
		c-10.2-6.4-19.3-12.1-29.4-18.4c138.5-24.3,275.8-48.3,413.1-72.4c0-0.3,0-0.6-0.1-0.9c-285.7,0.9-571.3,1.7-858.1,2.6
		c6.4,7.9,12,15,18.2,22.7c-13.9,0-26.8-0.5-39.6,0.2c-7.1,0.4-11.8-1.3-14.1-8.2c-0.9-2.6-2.6-3.4-5.4-2.9c-11,1.8-22,3.5-33.1,5
		c-1.5,0.2-3.9-0.7-4.8-1.8c-4.7-5.6-9.2-11.4-13.4-17.4c-1-1.4-1.2-4-0.5-5.6c4.2-10.1,8.7-20.2,13.2-30.1c1.1-2.4,1.1-4-1-6
		c-9.3-9-18.5-18.2-27.6-27.5c-2.2-2.2-3.8-2.2-6.4-1c-9.8,4.5-19.8,8.7-29.7,13.1c-2.4,1.1-4.1,1.2-6.3-0.6
		c-5.5-4.6-11.4-8.7-16.9-13.2c-1.2-1-2.2-3.3-2-4.8c1.4-10.9,3-21.7,4.9-32.6c0.5-3.2-0.3-4.8-3-6.4c-11-6.2-22-12.4-32.9-19
		c-3-1.8-4.9-1.3-7.4,0.8c-8.1,6.7-16.4,13.1-24.5,19.8c-2.4,2-4.3,2.2-7.1,0.9c-6-2.7-12.2-5.3-18.4-7.6c-2.9-1.1-4.1-2.7-4.4-5.8
		c-0.9-10.3-2.3-20.5-3.1-30.8c-0.3-3.8-1.8-5.4-5.4-6.3c-11.9-2.9-23.8-6.1-35.7-9.4c-3.3-0.9-5.1-0.5-7.1,2.3
		c-6.2,8.8-12.7,17.6-19.3,26.1c-1,1.3-3.5,2.3-5.1,2.1c-6.6-0.5-13.2-1.7-19.8-2.3c-3.4-0.3-5.3-1.5-6.5-4.8
		c-3.6-10-7.7-19.8-11.4-29.8c-1-2.6-2.2-3.5-5.1-3.5c-13,0.2-26,0.2-39,0c-3.1,0-4.3,1.1-5.3,3.8c-3.7,9.8-7.7,19.5-11.2,29.3
		c-1.3,3.6-3.3,4.8-6.9,5c-6.3,0.5-12.6,1.2-18.8,2.4c-3,0.6-4.5-0.1-6.2-2.4c-6.4-8.9-12.9-17.8-19.6-26.5c-1-1.3-3.7-2.3-5.2-1.9
		c-12.6,3.1-25,6.7-37.6,9.9c-3.5,0.9-4.2,2.6-4.5,5.9c-1,10.6-2.1,21.2-3.6,31.7c-0.3,1.8-2.1,4-3.8,4.8c-6.3,3-12.8,5.6-19.3,8
		c-1.6,0.6-4.3,0.2-5.6-0.8c-8.7-6.7-17.3-13.5-25.8-20.5c-2.3-1.9-4-2-6.5-0.5c-10.6,6.3-21.2,12.6-32,18.4
		c-4.1,2.2-4.6,4.8-3.9,8.8c1.7,10.2,3.3,20.4,4.6,30.6c0.2,1.7-0.8,4.2-2.2,5.3c-5.3,4.5-11.1,8.5-16.5,13
		c-2.1,1.7-3.8,1.9-6.2,0.8c-10-4.5-20.1-8.8-30.1-13.3c-2.4-1.1-4-1.2-6,0.9c-9.2,9.4-18.6,18.6-27.8,28.1
		c-1.1,1.1-1.5,3.9-0.9,5.4c4.2,10.3,8.9,20.4,13.2,30.7c0.6,1.6,0.3,4.2-0.7,5.6c-4.1,5.9-8.5,11.6-13.1,17
		c-1.1,1.3-3.5,2.1-5.2,1.9c-9.9-1.2-19.9-2.3-29.6-4.4c-5.8-1.3-8.7,0.5-10.6,5.5c-1.5,4-4.2,5.2-8.4,5c-8.3-0.4-16.7-0.1-25-0.1
		c-5.4,0-10.8,0-17.3,0c6.3-7.9,11.9-14.8,18.3-22.7c-287-0.9-572.6-1.7-858.2-2.6c0,0.3-0.1,0.6-0.1,0.9
		c137.3,24.1,274.6,48.1,413.1,72.4c-10.3,6.4-19.4,12.1-29.3,18.4c161,35.1,320.7,69.9,480.5,104.7c-0.5,4.3-1.3,8.1-1.4,11.9
		c-0.1,3.5-1.8,4.8-4.8,5.9c-9.3,3.5-18.9,6.7-27.8,11c-10.4,5-21,2-32.6,3.2c5.1-8.5,9.6-16,14-23.4c-182.1,0-363.8,0-545.4,0
		c0,0.4-0.1,0.8-0.1,1.2c87.4,19.9,174.9,39.8,263.4,59.9c-7.7,6.8-14.3,12.7-21.5,19.1c129.9,43.1,259,86,388.7,129.1
		c-8.2,10.3-15.8,19.9-23.5,29.3c-1.6,2-1.8,3.4-0.5,5.7c6.7,11.3,13.3,22.7,19.7,34.2c1.4,2.5,3,3,5.7,2.5c11-1.8,22-3.5,33.1-5
		c1.4-0.2,3.5,0.6,4.4,1.6c4.7,5.7,8.9,11.7,13.5,17.3c1.8,2.2,1.6,3.9,0.5,6.2c-4.5,9.8-8.6,19.8-13.1,29.6c-1.2,2.7-1,4.4,1.2,6.5
		c9.2,8.9,18.3,18,27.2,27.2c2.3,2.3,4,2.4,6.8,1.1c9.5-4.4,19.3-8.2,28.7-12.7c3.3-1.6,5.3-1,7.9,1.1c4.5,3.8,8.9,7.6,13.9,10.6
		c4.3,2.6,4.6,5.7,3.9,10c-1.7,9.7-3.3,19.4-4.5,29.1c-0.2,1.8,0.7,4.8,2.1,5.7c12.2,7.4,24.7,14.4,37.3,21.7
		c9.6-7.6,19.1-15.1,28.5-22.8c2.2-1.8,3.8-1.9,6.2-0.8c6.2,2.8,12.5,5.5,18.9,7.8c2.9,1.1,4.1,2.8,4.4,5.7
		c1,10.3,2.4,20.5,3.3,30.8c0.3,3.5,1.2,5.3,4.8,6.2c12.4,3.1,24.8,6.4,37.1,9.9c2.8,0.8,4.3,0,5.8-2.2c4-5.7,8.2-11.3,12.4-16.9
		c3.1-4.1,5.5-10,9.7-11.6c4.1-1.7,10,1.6,15.1,1.4c10.4-0.5,14.9,4.8,17.4,14.1c2.3,8.4,5.8,16.5,8.8,24.7c15.7,0,31.3,0,47,0
		c4.3-10.8,8.8-21.5,12.7-32.5c1.4-3.9,3.6-5.1,7.2-5.4c6.6-0.7,13.2-1.7,19.8-2.3c1.6-0.1,3.8,0.7,4.7,1.9
		c6.7,8.7,13.2,17.6,19.6,26.5c1.7,2.4,3.3,3,6.2,2.2c12-3.4,24-6.6,36.1-9.6c3.9-1,5.2-3,5.5-6.8c0.9-10.3,1.9-20.6,3.3-30.8
		c0.2-1.8,2.1-4.1,3.8-4.9c6.3-3,12.9-5.3,19.3-8.2c2.8-1.3,4.5-0.7,6.6,1.1c8.2,6.8,16.7,13.3,24.9,20.1c2.3,1.9,3.9,2.2,6.5,0.6
		c11-6.6,22.1-13,33.3-19.2c2.8-1.6,3.5-3.3,3-6.4c-1.8-10.7-3.4-21.3-4.8-32.1c-0.2-1.7,0.8-4.1,2.1-5.2
		c5.3-4.5,11.1-8.5,16.5-12.9c2.2-1.8,4-2.1,6.6-0.9c9.8,4.5,19.8,8.7,29.6,13.1c2.4,1.1,4,1.3,6-0.9c9.2-9.4,18.5-18.7,27.9-27.9
		c1.9-1.8,2.1-3.3,1-5.6c-4.6-10.1-9.1-20.3-13.4-30.6c-0.6-1.4-0.3-3.9,0.6-5.2c4.3-6.1,8.9-12,13.7-17.8c0.9-1.1,3-2,4.4-1.8
		c11,1.5,22,3.4,33.1,4.8c1.6,0.2,4.4-0.8,5.1-2.1c7-11.5,13.7-23.2,20.3-35c0.6-1.1,0.4-3.5-0.4-4.6c-4.1-5.5-8.5-10.7-12.7-16.1
		c-3.5-4.3-6.9-8.7-10.6-13.4c130.2-43.2,259.6-86.2,389.6-129.4c-7.3-6.5-14-12.4-21.5-19.1c88.7-20.2,176-40,263.4-59.9
		C2267.2,404,2267.2,403.6,2267.2,403.2z M808.5,435.3c-0.8,8.3-6.8,17.5-15.3,23.5C796,449.8,799.9,441.6,808.5,435.3z
		 M410.8,415.9c129.2-2.5,258.4-4.1,387.6,0C774.4,420.5,439.7,420.4,410.8,415.9z M544,480.5c6.5-8.8,13-16.3,24-20.7
		C564.2,468.3,552.5,478.3,544,480.5z M860.2,508.2c-18.9,0.7-244.1-36.8-266.1-44.3C610.2,462.5,844.3,501.5,860.2,508.2z
		 M856.5,543.4c-3.4,3.6-3.8,7.3-3.2,11.8c1,7,1.7,14.1,1.8,21.4c-3.5-10-7.1-20-10.5-30c-0.3-0.8,0.7-2.4,1.6-3.1
		c9.9-8.3,19.9-16.5,29.9-24.7c0.2,0.3,0.5,0.5,0.7,0.8C870.1,527.6,863.6,535.8,856.5,543.4z M2123,283.8
		c-10.6-0.5-39-14-45.3-21.5C2094.7,266.2,2108.6,274.6,2123,283.8z M2303.6,208.9c-193,4-386,6.5-579,3
		C1917.6,206.2,2110.6,207,2303.6,208.9z M1724.5,254.4c-8.2-3.4-20.7-17.8-22.7-26.4C1712.5,234.8,1718.5,244.1,1724.5,254.4z
		 M2055.3,266c-26.1,5.5-349.1,27.6-369.3,25.2C1710.8,284.6,2033.8,264.3,2055.3,266z M844.5,230.9c-4.1,11.1-12.3,18.7-21.6,25.3
		C828,246,834.1,236.6,844.5,230.9z M243.3,210.7c192.7-1.6,385.3-2.6,578,2.9C803.2,217.6,270.1,215,243.3,210.7z M424.3,286.7
		c5.3-7,34-21,45.3-21.9C455.6,275.7,440.3,281.2,424.3,286.7z M860,292.7c-16.3,3-327-18-368.1-25
		C614.8,273.3,737.6,279.9,860,292.7z M866.3,316.7c-3.4,1.1-5.6,2.9-6.9,6.3c-2.9,7.2-6.2,14.3-10.1,21.2
		c1.9-10.2,3.8-20.4,5.8-30.6c0.2-0.8,1.3-2,2.2-2.1c12.7-2.2,25.5-4.2,38.3-6.3c0.1,0.4,0.2,0.8,0.2,1.2
		C886,309.8,876.2,313.4,866.3,316.7z M907.5,224.9c1.3,6-4.3,16-10.9,19.4C897.5,236.1,901.7,228.5,907.5,224.9z M949.3,465.4
		c3-14.7-5.3-23.1-19-20c4-5.4,12.7-5.8,18.5-0.9C955.3,449.9,955.7,458.7,949.3,465.4z M982.5,264.1c5.4-5.7,13.6-5.9,19.4-0.5
		c5.8,5.4,6.1,13.7,0.3,20.5C1004.9,269.1,997.3,261.6,982.5,264.1z M1128.8,183.3c100-57.1,226.1-49.8,320,18.3
		c82.8,60,123.7,142.6,126.2,244.4c-3.1-87.7-35.9-162.2-101.6-220.8c-58.7-52.4-128.3-77.6-207.1-75.5
		c-79.2,2.1-147.4,31.4-203.5,87.1c-54.2,53.7-82.8,119.2-88.6,194.3C982.4,322.2,1032.6,238.3,1128.8,183.3z M1098.7,151.4
		c3.8-5,12-5.4,17.7-0.9c6.2,4.9,7.2,13.3,1.7,20.4C1119.6,154.7,1109.4,149.1,1098.7,151.4z M1262,108.2c4.9-5.5,13.4-5.8,19.2-0.5
		c6.1,5.6,6.4,13.8,0.1,20.8C1284.3,113.4,1276.4,105.4,1262,108.2z M1426.9,155.2c5.7-5.6,14.4-5.4,19.9,0.4
		c5.5,5.8,5.3,14-0.3,19.5C1449.5,162.1,1441.6,152.2,1426.9,155.2z M1542.8,264.1c5.4-5.9,13.9-6.1,19.8-0.5
		c5.9,5.7,5.9,14.2,0,20.3C1566.4,268.1,1554.7,260.4,1542.8,264.1z M996.1,639.2c1.6-6.5,1.4-12.2-3.3-16.8
		c-4.7-4.6-10.3-4.7-17-2.9c7.5-6.3,15.4-6.1,21-0.3C1002,624.8,1002,632.8,996.1,639.2z M973.7,438.8c0.1-2.3,0.3-4.5,0.4-6.8
		C974,434.2,973.8,436.5,973.7,438.8z M1115.8,750.1c3.4-13.1-5.4-22.9-19.5-19.9c5.5-5.3,14.1-5.3,19.6,0.1
		C1121.5,736,1121.5,744.6,1115.8,750.1z M1124.7,785.6c98.9,36.4,197.7,36.2,296.3-0.7C1324.5,835.3,1208,829.8,1124.7,785.6z
		 M1260.2,774.4c3.9-5.1,12.3-5.5,18.1-0.9c6.3,5.1,6.9,14.5,0.7,21C1282.7,781.8,1273.5,771.1,1260.2,774.4z M1449.3,750
		c3-12.5-4.7-22.8-19.7-19.8c5.8-5.4,14.5-5.3,19.9,0.4C1454.8,736.1,1454.7,744.8,1449.3,750z M1304.3,751.3
		c-130.5,14-226.8-61.2-270-136.2c59.8,81.3,138.8,127.5,241,127.3c102.1-0.2,181-46.5,240.6-127.7
		C1466.6,693,1397.2,741.3,1304.3,751.3z M1432.8,287.6c14.6,8,19,22.3,26.1,35c-1-2.6-2-5.2-2.9-7.8c-1-2.8-2-5.5-2.6-8.5
		c8.7,9.1,14.7,19.9,20.5,32.7c-7.6-3.4-14-5.9-20.1-9c-1.6-0.8-2.5-3.4-3.5-5.3c-2.2-3.9-4.2-7.8-7.1-11.4c0.2,0.8,0.3,1.7,0.7,2.5
		c11.6,24.3,17.1,50.3,20.2,76.8c3.3,28.1,3.5,56.2,0.8,84.3c-2,20-5.4,39.9-8.1,59.8c-0.2,1.6-0.5,3.2,0.1,5.1
		c1.3-4.6,2.7-9.1,3.9-13.7c10.4-40.3,14.6-81.2,11-122.7c-0.7-7.9-2.5-15.8-3.2-23.7c-0.5-5.9-0.1-11.8-0.1-18.7
		c2.4,0.9,3.6,1.4,4.9,1.9c0,0,0,0,0,0c4.3,15.3,6.2,30.9,5.7,46.8c-0.1,2.2-0.7,4.6-1.7,6.7c-4.3,9.7-4.2,19.3-0.3,29.1
		c1.1,2.9,1.9,6.1,1.9,9.1c0.5,17.5-0.7,34.9-4.3,52.1c6-16.7,7.5-34.2,9-51.9c3.5,0.8,5.8,1.6,5.4,5.5
		c-2.6,25.7-5.1,51.4-15.2,75.5c-7,16.7-17.3,31.1-32.2,43.8c1.7-4.9,2.9-8.4,4.6-13.3c-4.1,3.9-7.1,6.8-10.2,9.8
		c4.1-8.6,7.5-17.1,7.7-27.2c-0.9,0.7-1.5,0.9-1.6,1.2c-11.2,27-32.4,43-59.5,50.5c-16.4,4.6-33.6,7.1-50.6,8
		c-40.6,2.2-81.2,3.6-121.8,3.8c-26.1,0.1-52.2-2.3-78.3-4.3c-27.4-2.2-47.5-16.6-62.2-39.2c-13-20.1-19.4-42.5-23-65.9
		c-5.3-34.3-5.6-68.7-2.9-103.2c2.8-35.5,14.5-66.9,44.1-89.3c17.5-13.2,37.1-22,57.9-28.6c30.2-9.6,61.4-14.7,92.8-18.2
		c32.6-3.6,65.3-6.5,98.2-5.7c20.2,0.4,40.2,2.3,59.7,8c15.9,4.6,29.2,12.8,37.6,27.6c0.8,1.4,1.9,2.7,3.7,3.7
		C1436.3,295.2,1434.7,291.7,1432.8,287.6z M1516.7,423.9c-8.3,1.2-7.1,6.6-5.3,12.7c0.4-2.1,0.3-4.1,1.1-5.3
		c1.5-2.1,3.6-5.3,5.6-5.3c2-0.1,4.7,2.6,6.1,4.8c2.2,3.6-0.4,11.2-4,13.2c-0.8,0.4-2.2,0.8-2.8,0.4c-6.4-4.4-13.6-2.1-20.4-2.5
		c-5.4-0.3-10.9-0.1-16.3-0.1c0-0.5,0-0.9,0-1.4c10,0,20,0,30,0c0.1-0.5,0.1-1,0.2-1.6c-1.9-0.3-3.8-1-5.7-0.9
		c-7.8,0.1-15.6,0.2-23.4,0.6c-3.3,0.1-4.6-1.5-4.8-4.4c-0.1-2,0-4,0-6.7c9.5,0,19-0.2,28.4,0.3c1.4,0.1,2.6,3.6,3.6,5.1
		c0-2.1-0.3-5.2,0.1-8.2c0.4-2.8,1.6-5.5,2.6-8.8C1513.6,419,1515,421.1,1516.7,423.9z M1514.6,414.8c5.9-0.5,10,4.2,10.4,11.8
		C1517.4,423,1515.5,420.8,1514.6,414.8z M1510.7,451.1c-8-0.6-14.9-1.2-22-1.8c-0.4-0.9-0.8-2.2-1.3-3.6c9,0,18.3,0,27.5,0
		c0,0.4,0.1,0.7,0.1,1.1c-3.6,0.3-7.2,0.6-11.8,0.9C1505.9,449,1507.8,449.8,1510.7,451.1z M1299.1,641.8c-4-0.3-7.2,0-6.1,5.6
		c-2.4,0-4.5,0-7.1,0c0-3.8,0-7.5,0-11.1c0-1.1,0.2-2.3,0.3-3.7c1.6-0.1,3-0.2,3.5-0.2c0.2,3.2,0.4,6.1,0.5,9c0.5,0,1,0,1.4-0.1
		c0.4-2.9,0.8-5.8,1.4-9.8c11.9,0,23.4,0.5,34.8-0.1c29.8-1.4,59.3-5.1,87.5-15.8c42.4-16.1,67.1-46.8,74.3-91.1
		c3.7-22.8,5.4-45.9,8-68.9c0.1-1.1,0.3-2.2,0.5-3.5c0.9-0.1,1.5-0.3,2.2-0.2c2.3,0.3,4.5,0.6,7.3,1c-0.6,7.5-1.1,14.8-1.7,22
		c-1.7,21.7-3.8,43.4-9.3,64.6c-12.3,46.9-43.5,74.8-88.6,88.9c-32.2,10.1-65.4,13-99,13.4C1305.7,641.9,1302.4,642,1299.1,641.8z
		 M1303.6,659.7c0,20,0,40.1,0,60.6c-3.3,0.2-6.5,0.5-10.5,0.8c0-13.8,0-27,0-40.1c0-4.3,0-8.7,0-13
		C1293.1,658.4,1293.1,658.4,1303.6,659.7z M1286.9,659.7c0,20.6,0,41,0,61.7c-7.5,0-14.9,0-22.6,0c0-20.5,0-40.8,0-61.7
		C1272,659.7,1279.3,659.7,1286.9,659.7z M1266.1,647.3c0-4.7,0-9.4,0-14.4c5.2,0,10.3,0,15.6,0c0.1,1,0.3,1.9,0.3,2.8
		C1282.3,648.9,1279.6,650.8,1266.1,647.3z M1444.5,595.8c6.4-6.4,15.2-15.2,22.5-22.5C1466.1,577,1452.3,591.2,1444.5,595.8z
		 M1501.9,420.2c-7.1-0.4-14.2-0.1-21.4-0.1c0.7-3.7,2.9-6.2,7.3-6.4c7.9-0.4,15.8-0.1,23.9-0.1
		C1510.3,419.1,1506.9,420.4,1501.9,420.2z M1484.4,409.4c-1.8-9.8-3.3-19.7-5.6-29.4c-1.2-5.2-3.6-10.2-5.5-15.2
		c8.1-1.1,8.8-0.9,10.3,7.1c2,10.6,3.6,21.3,5.4,32C1489.6,407.6,1487.5,408.8,1484.4,409.4z M1466.4,356.4
		c-1.3-0.7-1.5-3.5-2.3-5.6c13.9-0.8,15.8,0.6,16.7,12C1475.8,360.6,1470.9,358.8,1466.4,356.4z M1462,339.7
		c11.7-0.7,13,0.2,14.9,9.1C1469.5,348,1462.5,343.9,1462,339.7z M1250.5,633.7c0,4.5,0,9,0,13.5c-0.3,0-0.5,0-0.8,0.1
		c0-4.5,0-9,0-13.5C1250,633.7,1250.2,633.7,1250.5,633.7z M1231.3,647.4c0-5.1,0-10,0-15.2c4,0.2,7.8,0.4,12,0.6
		c0,4.8,0,9.5,0,14.7C1239.6,647.4,1235.7,647.4,1231.3,647.4z M1241.5,660.9c0,19.5,0,38.9,0,58.4c-0.3,0-0.7,0-1,0
		c0-19.5,0-38.9,0-58.4C1240.9,660.9,1241.2,660.9,1241.5,660.9z M1091.6,602.1c19,13.7,40.9,20.1,63.6,23.1
		c21.7,2.9,43.7,3.6,65.6,5.3c1.3,0.1,2.6,0.2,3.9,0.3c0.2,0.5,0.4,1,0.7,1.5c-1.3,0.7-2.6,1.9-3.8,1.9c-27.6-0.8-55.1-2.7-82.1-9.3
		c-0.8-0.2-1.6-0.2-2.4-0.2c28.7,9,58.2,12.9,88.5,16.4c-4.6,3.2-46-2-71.2-8.6c-23.2-6.1-46-13.3-65.4-30.8
		C1090.7,601.9,1091.3,601.9,1091.6,602.1z M1213,660.4c0-0.5,0.3-0.9,0.6-1.7c5,0.3,9.6,0.5,14.2,1.1c1.2,0.2,3.1,1.8,3.1,2.7
		c0.2,18.5,0.1,36.9,0.1,55.9c-5.5-1-10.6-1.8-15.6-3c-1-0.2-2.4-1.9-2.4-3C1212.9,695,1212.9,677.7,1213,660.4z M1332.3,715.4
		c0-9.5-0.1-19,0-28.4c0.1-7.2,0.5-14.3,0.5-21.5c0.1-11.9-3.8-16.1-14.8-17.2c12.4-0.9,25.7-1.4,39-2.8
		c25.6-2.6,50.6-7.8,74.3-18.2c41.7-18.3,66.3-50.4,74.4-94.7c3.7-20.6,4.9-41.6,7.2-62.4c0.4-3.6,0.6-7.3,1-10.8
		c13.1-1.6,19.7-9.5,19.5-27.9c-0.1-5.1-2-10.4-4.2-15.2c-2.3-5-6.7-8.4-12.5-8.6c-5.3-0.2-10.6,0-16.1,0c-2-13-3.9-25.7-5.9-38.7
		c1.2-0.2,2.6-0.5,4.6-0.9c-2.7-3.6-5.2-6.9-8.1-10.8c2-0.5,3.3-0.8,5.4-1.3c-2.7-3.3-5.2-6.3-8.1-9.9c2.7-0.3,4.7-0.5,7-0.7
		c-0.4-0.8-0.5-1.5-0.9-1.9c-8.8-7.3-13.8-17.1-19.8-26.6c-21.9-34.4-52.1-57.2-93.2-64.3c-28.1-4.8-56.4-5.1-84.7-3.1
		c-28.7,2.1-57.4,4.7-85.9,8.4c-39.1,5.1-77.1,14.4-112,33.9c-39.3,21.9-59.7,56-64.9,100.1c-4.3,36.3-3.3,72.5,1.3,108.6
		c3.8,30.4,12,59.5,31.4,84c22.6,28.6,51.6,47.8,87,56.8c14.6,3.7,29.5,6.3,44.3,9.4c1.3,0.3,2.5,0.6,3.1,0.8
		c-0.4,5.4-1,10.4-1,15.4c-0.1,14.6,0,29.3,0,44c-102.6-26.3-207.9-132.3-197.7-281.6c9.8-144.7,132.6-258.6,282-253.6
		c142.2,4.7,256.8,117.5,263.6,258.8C1555.2,587.7,1442.6,694.4,1332.3,715.4z M1571,631.5c1.6-6.3,1.4-11.9-3.2-16.5
		c-4.6-4.6-10-5.4-16.2-3.7c6.5-5.7,14.7-5.4,20.1,0.4C1576.8,617.3,1576.7,625.2,1571,631.5z M1616.2,454.8
		c1.4-6.3,1.3-11.9-3.1-16.4c-4.4-4.4-9.7-5.4-17-3.3c7-6.1,15.1-5.8,20.4-0.5C1622,440.1,1622.2,448.1,1616.2,454.8z M1649.8,444.7
		c-1.6-14.8-2.6-34.9-6.2-54.6c-3.6-19.9-8.5-39.7-15.1-58.7c-6.5-18.9-14.7-37.5-24.2-55.1c-9.6-17.8-20.8-35-33.1-51
		c-12.3-16-26.1-31.3-40.8-45.1c-14.8-13.8-30.8-26.6-47.6-37.9c-16.8-11.3-34.6-21.2-53-29.7c-18.2-8.4-37.2-15.4-56.5-20.7
		c-19.4-5.3-39.5-9-59.6-11.2c-20.1-2.2-40.6-3-60.8-2c-63,3.2-121.7,21.4-175.6,54.5c-54.1,33.2-97.3,77.3-129.3,132.2
		c-31.8,54.6-48.4,113.7-50.6,176.9c-1.6-89.7,41.8-222.5,167.1-305.6c121-80.2,276.2-84.3,399.8-11.2
		C1596.2,203.6,1652,339.4,1649.8,444.7z M1644.4,227.1c7,4.8,9.2,11.6,10.9,19.2C1649.3,243.9,1643.8,234.4,1644.4,227.1z
		 M1664.1,305.4c8,1.3,16.1,2.5,24.1,4c1.2,0.2,2.9,1.6,3.2,2.8c2.1,9.7,3.9,19.5,5.7,29.2c-0.3,0.1-0.7,0.1-1,0.2
		c-3.2-7.3-6.2-14.6-9.7-21.7c-0.9-1.8-2.9-3.6-4.8-4.4c-10.2-3.9-20.5-7.4-30.6-12.1C1655.4,304,1659.8,304.7,1664.1,305.4z
		 M1753.3,457c-7-3.9-14.9-15.6-15.1-22.4C1744.3,437,1751.6,447.8,1753.3,457z M1701.7,545.1c-3.1,9.5-6.6,19-10,28.4
		c-0.3-0.1-0.6-0.1-1-0.2c0.9-7.7,1.9-15.4,2.5-23.1c0.2-2.2-0.5-5-1.8-6.6c-6.9-8.6-14.2-17-20.7-26.2c3.6,3,7.3,5.9,10.9,8.9
		c6.1,4.9,12.2,9.8,18.1,14.9C1700.8,542.1,1702.1,544.1,1701.7,545.1z M1685.1,506.3c28.6-8.4,250.7-45.3,267.4-44.5
		C1936.2,468.3,1706.5,506.7,1685.1,506.3z M1979.3,458.9c10.1,3.4,16.6,10.9,22.3,19.4C1992.2,474.1,1984.2,468.4,1979.3,458.9z
		 M1748.1,414.6c17.9-4.1,355.1-4.3,387.1-0.1C2006.2,417.3,1877.1,419.2,1748.1,414.6z M1415.9,514.9c2.4-20.8,3.3-41.8,4-62.7
		c0.8-27.1,1-54.3-2.9-81.3c-0.9-6.1-2.2-12.2-3.5-19.3c-2,2.2-3,3.2-4,4.3c-18.3,20.5-50.3,23.9-72.5,7.6
		c-23.3-17.1-22.6-48.5,1.8-64c6.2-3.9,13.4-6.2,20.5-9.3c-1.6-0.5-3.1-1.1-4.7-1.5c-21.8-6.4-44.2-7.9-66.7-7.7
		c-21.5,0.2-42.9,1.5-64.4,2.7c-26.6,1.5-53.1,4.6-78.7,12.2c-12.7,3.7-25.3,8.4-37.1,14.2c-37.3,18.5-53,50.8-55.4,90.7
		c-1.2,20.3-1.3,40.6-1,60.9c0.4,24.2,3.2,48.1,10.9,71.3c10.1,30.5,29.3,51.8,61.1,60.3c16.3,4.4,33,6.6,49.9,6.3
		c38-0.7,75.9-1.4,113.9-3.2c23.8-1.1,47.2-5.5,70-12.7C1390.7,572.7,1411.7,550.6,1415.9,514.9z M1224.4,345.9
		c-15.9,16.4-31.4,33.1-44,52.3c-15.1,23-24.6,48.1-27.5,75.6c-0.1,1.1-0.5,2.2-0.7,3.3c-0.5,0.1-1,0.1-1.5,0.2
		c-1.2-6.9-3.2-13.8-3.6-20.7c-2.3-37.9,13.8-67.9,40.9-93c11.4-10.5,24.2-18.7,39.1-23.4c0.8-0.2,1.5-0.4,3.6-0.9
		C1228,342.1,1226.2,344,1224.4,345.9z M1071.9,511c-0.6-0.1-1.3-0.3-1.9-0.4c-1.7-8.2-3.7-16.3-4.9-24.5c-4-28.3-4.2-56.8-2.9-85.3
		c1-22,5.1-43.3,18.6-61.6c13.7-18.6,32.9-29.2,54.2-36.6c21.3-7.4,43.5-11.3,65.9-13c25.7-1.9,51.5-2.8,77.3-4.1
		c1.6-0.1,3.2,0,5.1,0.6C1178.8,329.2,1109,404.7,1071.9,511z M1251.6,270.3c0-0.3-0.1-0.7-0.1-1c13.4-1.2,26.7-2.8,40.1-3.5
		c23.6-1.2,47.3-1.5,70.8,1.8c13.4,1.9,26.6,4.6,38.5,11.2c4.7,2.6,8.9,6.2,13.3,9.4c-0.2,0.4-0.4,0.8-0.7,1.1
		c-0.8-0.3-1.7-0.4-2.4-0.8c-15.7-9.9-33.4-13.6-51.4-16.1c-33.6-4.7-67.4-3.8-101.2-2.2C1256.3,270.4,1253.9,270.3,1251.6,270.3z
		 M1420.1,523.7c2,7.8,0.6,18.1-3.6,27.5c-7,15.4-18.9,25.9-33.8,33.3c-14.3,7.1-37.8,12.6-49,10.9c2.3-0.6,4.6-1.2,6.9-1.8
		c19.9-5.1,39.2-11.6,55.3-25.2c13-10.9,21.3-24.5,23.4-41.6C1419.4,525.9,1419.8,525,1420.1,523.7z M1447.7,505
		c0-39.1,0-78.2,0-117.2c0.4-0.1,0.9-0.1,1.3-0.2C1453.7,426.7,1456,465.9,1447.7,505z M1410.2,342.8c-8.7-19.6-20.4-36.6-40.1-47.6
		C1388.1,292.5,1413,322.2,1410.2,342.8z M1424.3,308.1c14.4,16.4,20.4,35.8,20.5,57.2C1439.3,345.7,1434.3,326,1424.3,308.1z
		 M1304.9,636.5c6.8-0.3,12.3-0.6,17.9-0.9c31.5-1.9,62.5-5.9,92.3-17.2c43.9-16.7,69.2-48.5,76.9-94.5c2.8-16.9,4.9-33.8,8-50.7
		c-0.3,4.6-0.7,9.3-1,13.9c-1.4,19.7-2.8,39.5-8.3,58.7c-10.9,37.5-35.8,61.8-71.6,75.7c-24.1,9.4-49.3,13.8-75,15
		C1331.4,637,1318.8,636.5,1304.9,636.5z"/>
</g>
</svg>
